<svg xmlns="http://www.w3.org/2000/svg" xmlns:xlink="http://www.w3.org/1999/xlink" fill="none" version="1.1" width="43.128662109375" height="43.128662109375" viewBox="0 0 43.128662109375 43.128662109375"><defs><filter id="master_svg0_440_06122" filterUnits="objectBoundingBox" color-interpolation-filters="sRGB" x="-4.752505302429199" y="-3.5643789768218994" width="45.5050106048584" height="45.5050106048584"><feFlood flood-opacity="0" result="BackgroundImageFix"/><feColorMatrix in="SourceAlpha" type="matrix" values="0 0 0 0 0 0 0 0 0 0 0 0 0 0 0 0 0 0 127 0"/><feOffset dy="1.1881263256072998" dx="0"/><feGaussianBlur stdDeviation="1.1881263256072998"/><feColorMatrix type="matrix" values="0 0 0 0 0 0 0 0 0 0 0 0 0 0 0 0 0 0 0.20000000298023224 0"/><feBlend mode="normal" in2="BackgroundImageFix" result="effect1_dropShadow"/><feBlend mode="normal" in="SourceGraphic" in2="effect1_dropShadow" result="shape"/></filter><filter id="master_svg1_440_06135" filterUnits="objectBoundingBox" color-interpolation-filters="sRGB" x="-2.3762526512145996" y="-1.4257515668869019" width="15.920823097229004" height="6.772307395935059"><feFlood flood-opacity="0" result="BackgroundImageFix"/><feColorMatrix in="SourceAlpha" type="matrix" values="0 0 0 0 0 0 0 0 0 0 0 0 0 0 0 0 0 0 127 0"/><feOffset dy="0.9505010843276978" dx="0"/><feGaussianBlur stdDeviation="0.5940631628036499"/><feColorMatrix type="matrix" values="0 0 0 0 0 0 0 0 0 0 0 0 0 0 0 0 0 0 0.4000000059604645 0"/><feBlend mode="normal" in2="BackgroundImageFix" result="effect1_dropShadow"/><feBlend mode="normal" in="SourceGraphic" in2="effect1_dropShadow" result="shape"/></filter></defs><g style="mix-blend-mode:passthrough" filter="url(#master_svg0_440_06122)"><g style="mix-blend-mode:passthrough"><rect x="3.5643310546875" y="2.376220703125" width="36" height="36" rx="5.940631866455078" fill="#FFFFFF" fill-opacity="1"/></g><g style="opacity:0.6000000238418579;mix-blend-mode:passthrough"><path d="M11.762328849487304,30.891078460693357Q11.762328849487304,24.05839846069336,13.453628849487306,20.501608460693358Q14.703692449487304,17.872714960693358,16.928558849487306,16.46467846069336Q19.289928849487303,14.970258460693358,22.574238849487305,14.97026846069336L26.649148849487304,14.970258460693358L26.649148849487304,17.94057910938636L26.649148849487304,20.91089846069336L24.941448849487305,20.91089846069336L24.941448849487305,14.970258460693358L26.649148849487304,14.970258460693358Q26.795048849487305,14.970258460693358,26.940348849487307,14.98456846069336Q27.085548849487303,14.998868460693359,27.228648849487307,15.02733846069336Q27.371748849487304,15.05580846069336,27.511448849487305,15.098168460693358Q27.651048849487303,15.14051846069336,27.785848849487305,15.19636846069336Q27.920648849487307,15.25220846069336,28.049348849487306,15.32099846069336Q28.178048849487304,15.389778460693359,28.299348849487306,15.47084846069336Q28.420748849487303,15.55191846069336,28.533548849487303,15.64449846069336Q28.646348849487303,15.73706846069336,28.749448849487305,15.84024846069336Q28.852648849487302,15.94342846069336,28.945248849487307,16.056228460693358Q29.037848849487304,16.169028460693358,29.118848849487307,16.29035846069336Q29.199948849487306,16.41168846069336,29.268748849487302,16.54037846069336Q29.337548849487305,16.66907846069336,29.393348849487303,16.803888460693358Q29.449248849487304,16.93870846069336,29.491548849487305,17.07834246069336Q29.533948849487302,17.21798146069336,29.562448849487303,17.36109946069336Q29.590848849487305,17.50421846069336,29.605148849487307,17.64943746069336Q29.619448849487306,17.794657460693358,29.619448849487306,17.940579582233358Q29.619448849487306,18.08650146069336,29.605148849487307,18.23172146069336Q29.590848849487305,18.37694146069336,29.562448849487303,18.52005946069336Q29.533948849487302,18.66317746069336,29.491548849487305,18.80281646069336Q29.449248849487304,18.94245846069336,29.393348849487303,19.07726846069336Q29.337548849487305,19.21208846069336,29.268748849487302,19.340778460693357Q29.199948849487306,19.46946846069336,29.118848849487307,19.59079846069336Q29.037848849487304,19.71212846069336,28.945248849487307,19.82492846069336Q28.852648849487302,19.93772846069336,28.749448849487305,20.04090846069336Q28.646348849487303,20.14408846069336,28.533548849487303,20.23666846069336Q28.420748849487303,20.32923846069336,28.299348849487306,20.410308460693358Q28.178048849487304,20.491378460693358,28.049348849487306,20.560168460693358Q27.920648849487307,20.62894846069336,27.785848849487305,20.68478846069336Q27.651048849487303,20.74063846069336,27.511448849487305,20.78299846069336Q27.371748849487304,20.82534846069336,27.228648849487307,20.85381846069336Q27.085548849487303,20.88228846069336,26.940348849487307,20.89658846069336Q26.795048849487305,20.91089846069336,26.649148849487304,20.91089846069336L22.574228849487305,20.91089846069336Q21.011798849487306,20.91089846069336,20.105418849487304,21.48450846069336Q19.331358849487305,21.97437846069336,18.818598849487305,23.05271846069336Q17.702968849487306,25.39890846069336,17.702968849487306,30.891078460693357L11.762328849487304,30.891078460693357Z" fill="#FFFFFF" fill-opacity="1"/></g><g style="mix-blend-mode:passthrough"><path d="M11.762328849487304,30.891078460693357Q11.762328849487304,24.05839846069336,13.453628849487306,20.501608460693358Q14.703692449487304,17.872714960693358,16.928558849487306,16.46467846069336Q19.289928849487303,14.970258460693358,22.574238849487305,14.97026846069336L26.649148849487304,14.970258460693358L26.649148849487304,17.94057910938636L26.649148849487304,20.91089846069336L24.941448849487305,20.91089846069336L24.941448849487305,14.970258460693358L26.649148849487304,14.970258460693358Q26.795048849487305,14.970258460693358,26.940348849487307,14.98456846069336Q27.085548849487303,14.998868460693359,27.228648849487307,15.02733846069336Q27.371748849487304,15.05580846069336,27.511448849487305,15.098168460693358Q27.651048849487303,15.14051846069336,27.785848849487305,15.19636846069336Q27.920648849487307,15.25220846069336,28.049348849487306,15.32099846069336Q28.178048849487304,15.389778460693359,28.299348849487306,15.47084846069336Q28.420748849487303,15.55191846069336,28.533548849487303,15.64449846069336Q28.646348849487303,15.73706846069336,28.749448849487305,15.84024846069336Q28.852648849487302,15.94342846069336,28.945248849487307,16.056228460693358Q29.037848849487304,16.169028460693358,29.118848849487307,16.29035846069336Q29.199948849487306,16.41168846069336,29.268748849487302,16.54037846069336Q29.337548849487305,16.66907846069336,29.393348849487303,16.803888460693358Q29.449248849487304,16.93870846069336,29.491548849487305,17.07834246069336Q29.533948849487302,17.21798146069336,29.562448849487303,17.36109946069336Q29.590848849487305,17.50421846069336,29.605148849487307,17.64943746069336Q29.619448849487306,17.794657460693358,29.619448849487306,17.940579582233358Q29.619448849487306,18.08650146069336,29.605148849487307,18.23172146069336Q29.590848849487305,18.37694146069336,29.562448849487303,18.52005946069336Q29.533948849487302,18.66317746069336,29.491548849487305,18.80281646069336Q29.449248849487304,18.94245846069336,29.393348849487303,19.07726846069336Q29.337548849487305,19.21208846069336,29.268748849487302,19.340778460693357Q29.199948849487306,19.46946846069336,29.118848849487307,19.59079846069336Q29.037848849487304,19.71212846069336,28.945248849487307,19.82492846069336Q28.852648849487302,19.93772846069336,28.749448849487305,20.04090846069336Q28.646348849487303,20.14408846069336,28.533548849487303,20.23666846069336Q28.420748849487303,20.32923846069336,28.299348849487306,20.410308460693358Q28.178048849487304,20.491378460693358,28.049348849487306,20.560168460693358Q27.920648849487307,20.62894846069336,27.785848849487305,20.68478846069336Q27.651048849487303,20.74063846069336,27.511448849487305,20.78299846069336Q27.371748849487304,20.82534846069336,27.228648849487307,20.85381846069336Q27.085548849487303,20.88228846069336,26.940348849487307,20.89658846069336Q26.795048849487305,20.91089846069336,26.649148849487304,20.91089846069336L22.574228849487305,20.91089846069336Q21.011798849487306,20.91089846069336,20.105418849487304,21.48450846069336Q19.331358849487305,21.97437846069336,18.818598849487305,23.05271846069336Q17.702968849487306,25.39890846069336,17.702968849487306,30.891078460693357L11.762328849487304,30.891078460693357Z" fill="#22E5E2" fill-opacity="1"/></g><g style="mix-blend-mode:passthrough" filter="url(#master_svg1_440_06135)"><rect x="17.10888671875" y="14.13859748840332" width="11.168317794799805" height="2.0198020935058594" rx="0" fill="#000000" fill-opacity="1"/></g><g style="mix-blend-mode:passthrough"><path d="M11.762333948974609,31.247525936889648Q11.762333948974609,29.774925936889648,11.65735394897461,26.91632593688965Q11.517363948974609,23.10416593688965,11.597363948974609,21.370105936889647Q11.74274394897461,18.218835936889647,12.594173948974609,16.13856593688965Q14.92019694897461,10.455405936889647,22.67780394897461,10.455405936889647L28.31490394897461,10.455405936889647L28.31490394897461,13.425725936889648L28.31490394897461,16.39604593688965L24.71280394897461,16.39604593688965L24.71280394897461,10.455405936889647L28.31490394897461,10.455405936889647Q28.460803948974608,10.455405936889647,28.60600394897461,10.46971593688965Q28.75120394897461,10.484015936889648,28.89430394897461,10.512485936889648Q29.03750394897461,10.540955936889649,29.17710394897461,10.583305936889648Q29.31670394897461,10.625665936889648,29.451603948974608,10.68151593688965Q29.58640394897461,10.73735593688965,29.71510394897461,10.80614593688965Q29.84380394897461,10.874925936889648,29.96510394897461,10.955995936889648Q30.08640394897461,11.037065936889649,30.19920394897461,11.129635936889649Q30.31200394897461,11.222215936889649,30.415203948974607,11.325395936889649Q30.51840394897461,11.428575936889649,30.61100394897461,11.541375936889649Q30.70350394897461,11.654175936889649,30.78460394897461,11.775505936889648Q30.86570394897461,11.896835936889648,30.93450394897461,12.025525936889649Q31.00320394897461,12.15421593688965,31.05910394897461,12.289035936889649Q31.11490394897461,12.423845936889649,31.157303948974608,12.563488936889648Q31.19960394897461,12.703127936889649,31.22810394897461,12.846245936889648Q31.25660394897461,12.989364936889649,31.27090394897461,13.134583936889648Q31.28520394897461,13.279803936889648,31.28520394897461,13.425725936889648Q31.28520394897461,13.571647936889649,31.27090394897461,13.71686793688965Q31.25660394897461,13.862086936889648,31.22810394897461,14.005205936889649Q31.19960394897461,14.148323936889648,31.157303948974608,14.287962936889649Q31.11490394897461,14.427605936889648,31.05910394897461,14.562415936889648Q31.00320394897461,14.697235936889648,30.93450394897461,14.825925936889648Q30.86570394897461,14.954615936889649,30.78460394897461,15.07594593688965Q30.70350394897461,15.197275936889648,30.61100394897461,15.310075936889648Q30.51840394897461,15.422875936889648,30.415203948974607,15.526055936889648Q30.31200394897461,15.629235936889648,30.19920394897461,15.721815936889648Q30.08640394897461,15.814385936889648,29.96510394897461,15.895455936889649Q29.84380394897461,15.976525936889649,29.71510394897461,16.045305936889648Q29.58640394897461,16.114095936889647,29.451603948974608,16.169935936889647Q29.31670394897461,16.22578593688965,29.17710394897461,16.26813593688965Q29.03750394897461,16.310495936889648,28.89430394897461,16.33896593688965Q28.75120394897461,16.36743593688965,28.60600394897461,16.381735936889648Q28.460803948974608,16.39604593688965,28.31490394897461,16.39604593688965L22.67780394897461,16.39604593688965Q20.372783948974607,16.39604593688965,19.22897394897461,17.037505936889648Q18.47127394897461,17.462425936889648,18.09213394897461,18.38879593688965Q17.62973394897461,19.518555936889648,17.53168394897461,21.643885936889646Q17.46302394897461,23.132095936889648,17.59398394897461,26.69832593688965Q17.70296394897461,29.66592593688965,17.70296394897461,31.247525936889648L11.762333948974609,31.247525936889648Z" fill="#2845D4" fill-opacity="1"/></g><g style="mix-blend-mode:passthrough"><path d="M18.63022675994873,10.934511295238769Q14.24460675994873,12.10560085723877,12.59403675994873,16.13842085723877Q11.742609759948731,18.21869085723877,11.597227859948731,21.369920857238768Q11.51722835994873,23.10402085723877,11.65721935994873,26.91622085723877Q11.76219375994873,29.77482085723877,11.76219375994873,31.24732085723877L17.70282675994873,31.24732085723877Q17.70282675994873,29.66572085723877,17.593846759948732,26.69822085723877Q17.46288675994873,23.131920857238768,17.531546759948732,21.64372085723877Q17.61953675994873,19.736460857238768,18.00095675994873,18.63094085723877Q17.67696675994873,17.86171085723877,17.51161675994873,17.04218085723877Q17.34626675994873,16.22266085723877,17.34626675994873,15.38614085723877Q17.34626675994873,14.79745085723877,17.42857675994873,14.214710857238769Q17.510886759948733,13.63197085723877,17.67384675994873,13.06698085723877Q17.83680675994873,12.50198085723877,18.07711675994873,11.96615085723877Q18.31742675994873,11.43032885723877,18.63022675994873,10.934511295238769Z" fill-rule="evenodd" fill="#2845D4" fill-opacity="1"/></g><g style="mix-blend-mode:passthrough"><path d="M12.593582844970703,16.137934809265136Q14.244154844970703,12.105114809265137,18.629774844970704,10.934021106265137Q18.3169748449707,11.429838809265137,18.076664844970704,11.965664809265137Q17.836354844970703,12.501494809265136,17.6733948449707,13.066484809265138Q17.510434844970703,13.631484809265137,17.428124844970704,14.214224809265136Q17.345814844970704,14.796954809265136,17.345814844970704,15.385644809265138Q17.345814844970704,16.222174809265137,17.511164844970704,17.041694809265138Q17.676514844970704,17.86122480926514,18.000504844970703,18.630444809265136Q17.850234844970704,19.065994809265135,17.745514844970703,19.626004809265137Q17.136244844970705,19.447024809265137,16.489634844970702,19.41029480926514Q15.843024844970703,19.373564809265137,15.187164844970702,19.480684809265135Q14.702324844970704,19.55987480926514,14.226014844970702,19.715844809265135Q13.749714844970704,19.871804809265136,13.293304844970702,20.100834809265137Q12.836904844970704,20.329854809265136,12.411301844970703,20.626464809265137Q11.985697844970703,20.923074809265138,11.601050085970703,21.280174809265137Q11.754251844970703,18.188664809265138,12.593582844970703,16.137934809265136Z" fill-rule="evenodd" fill="#3C5DFF" fill-opacity="1"/></g></g></svg>